<svg xmlns="http://www.w3.org/2000/svg" width="800" height="520" viewBox="0 0 800 520">
  <text x="40" y="40" font-family="PingFang SC, Noto Sans SC, sans-serif" font-size="20" font-weight="600" fill="#111">北京地铁示意</text>

  <!-- Line 1 (straight) -->
  <polyline points="90,320 210,320 330,320 450,320 570,320 690,320"
            fill="none" stroke="#2b7bff" stroke-width="10" stroke-linecap="round" stroke-linejoin="round"/>

  <!-- Line 2 (circle) -->
  <polyline points="330,320 330,180 450,180 570,180 570,320 570,420 330,420 330,320"
            fill="none" stroke="#ff3b30" stroke-width="10" stroke-linecap="round" stroke-linejoin="round"/>

  <!-- Line 1 stations -->
  <circle cx="90" cy="320" r="9" fill="#fff" stroke="#2b7bff" stroke-width="4"/>
  <text x="68" y="292" font-family="PingFang SC, Noto Sans SC, sans-serif" font-size="16" fill="#222">苹果园</text>

  <circle cx="210" cy="320" r="9" fill="#fff" stroke="#2b7bff" stroke-width="4"/>
  <text x="188" y="344" font-family="PingFang SC, Noto Sans SC, sans-serif" font-size="16" fill="#222">公主坟</text>

  <circle cx="330" cy="320" r="11" fill="#fff" stroke="#111" stroke-width="3"/>
  <text x="308" y="292" font-family="PingFang SC, Noto Sans SC, sans-serif" font-size="16" fill="#222">复兴门</text>

  <circle cx="450" cy="320" r="9" fill="#fff" stroke="#2b7bff" stroke-width="4"/>
  <text x="434" y="344" font-family="PingFang SC, Noto Sans SC, sans-serif" font-size="16" fill="#222">西单</text>

  <circle cx="570" cy="320" r="11" fill="#fff" stroke="#111" stroke-width="3"/>
  <text x="548" y="292" font-family="PingFang SC, Noto Sans SC, sans-serif" font-size="16" fill="#222">建国门</text>

  <circle cx="690" cy="320" r="9" fill="#fff" stroke="#2b7bff" stroke-width="4"/>
  <text x="674" y="344" font-family="PingFang SC, Noto Sans SC, sans-serif" font-size="16" fill="#222">国贸</text>

  <!-- Line 2 stations -->
  <circle cx="330" cy="180" r="9" fill="#fff" stroke="#ff3b30" stroke-width="4"/>
  <text x="306" y="152" font-family="PingFang SC, Noto Sans SC, sans-serif" font-size="16" fill="#222">西直门</text>

  <circle cx="450" cy="180" r="9" fill="#fff" stroke="#ff3b30" stroke-width="4"/>
  <text x="426" y="152" font-family="PingFang SC, Noto Sans SC, sans-serif" font-size="16" fill="#222">积水潭</text>

  <circle cx="570" cy="180" r="9" fill="#fff" stroke="#ff3b30" stroke-width="4"/>
  <text x="546" y="152" font-family="PingFang SC, Noto Sans SC, sans-serif" font-size="16" fill="#222">东直门</text>

  <circle cx="330" cy="420" r="9" fill="#fff" stroke="#ff3b30" stroke-width="4"/>
  <text x="306" y="432" font-family="PingFang SC, Noto Sans SC, sans-serif" font-size="16" fill="#222">崇文门</text>

  <circle cx="450" cy="420" r="9" fill="#fff" stroke="#ff3b30" stroke-width="4"/>
  <text x="426" y="432" font-family="PingFang SC, Noto Sans SC, sans-serif" font-size="16" fill="#222">长春街</text>

  <circle cx="570" cy="420" r="9" fill="#fff" stroke="#ff3b30" stroke-width="4"/>
  <text x="546" y="432" font-family="PingFang SC, Noto Sans SC, sans-serif" font-size="16" fill="#222">北京站</text>
</svg>
