<svg xmlns="http://www.w3.org/2000/svg" width="800" height="520" viewBox="0 0 800 520">
  <text x="40" y="40" font-family="PingFang SC, Noto Sans SC, sans-serif" font-size="20" font-weight="600" fill="#111">上海地铁示意</text>

  <polyline points="90,280 200,280 310,280 420,280 530,280 640,280 710,280 710,360 710,420"
            fill="none" stroke="#ff8a00" stroke-width="10" stroke-linecap="round" stroke-linejoin="round"/>
  <polyline points="420,280 420,360"
            fill="none" stroke="#ff8a00" stroke-width="10" stroke-linecap="round" stroke-linejoin="round"/>

  <circle cx="90" cy="280" r="9" fill="#fff" stroke="#ff8a00" stroke-width="4"/>
  <text x="66" y="252" font-family="PingFang SC, Noto Sans SC, sans-serif" font-size="16" fill="#222">虹桥</text>

  <circle cx="200" cy="280" r="9" fill="#fff" stroke="#ff8a00" stroke-width="4"/>
  <text x="176" y="304" font-family="PingFang SC, Noto Sans SC, sans-serif" font-size="16" fill="#222">静安寺</text>

  <circle cx="310" cy="280" r="9" fill="#fff" stroke="#ff8a00" stroke-width="4"/>
  <text x="286" y="252" font-family="PingFang SC, Noto Sans SC, sans-serif" font-size="16" fill="#222">徐家汇</text>

  <circle cx="420" cy="280" r="9" fill="#fff" stroke="#ff8a00" stroke-width="4"/>
  <text x="396" y="252" font-family="PingFang SC, Noto Sans SC, sans-serif" font-size="16" fill="#222">人民广场</text>

  <circle cx="530" cy="280" r="9" fill="#fff" stroke="#ff8a00" stroke-width="4"/>
  <text x="506" y="304" font-family="PingFang SC, Noto Sans SC, sans-serif" font-size="16" fill="#222">南京路</text>

  <circle cx="640" cy="280" r="9" fill="#fff" stroke="#ff8a00" stroke-width="4"/>
  <text x="616" y="252" font-family="PingFang SC, Noto Sans SC, sans-serif" font-size="16" fill="#222">外滩</text>

  <circle cx="710" cy="280" r="9" fill="#fff" stroke="#ff8a00" stroke-width="4"/>
  <text x="686" y="252" font-family="PingFang SC, Noto Sans SC, sans-serif" font-size="16" fill="#222">陆家嘴</text>

  <circle cx="710" cy="360" r="9" fill="#fff" stroke="#ff8a00" stroke-width="4"/>
  <text x="638" y="354" font-family="PingFang SC, Noto Sans SC, sans-serif" font-size="16" fill="#222">东方明珠</text>

  <circle cx="710" cy="420" r="9" fill="#fff" stroke="#ff8a00" stroke-width="4"/>
  <text x="686" y="444" font-family="PingFang SC, Noto Sans SC, sans-serif" font-size="16" fill="#222">浦东新区</text>

  <circle cx="420" cy="360" r="9" fill="#fff" stroke="#ff8a00" stroke-width="4"/>
  <text x="396" y="384" font-family="PingFang SC, Noto Sans SC, sans-serif" font-size="16" fill="#222">豫园</text>
</svg>
