<svg xmlns="http://www.w3.org/2000/svg" width="800" height="520" viewBox="0 0 800 520">
  <text x="40" y="40" font-family="PingFang SC, Noto Sans SC, sans-serif" font-size="20" font-weight="600" fill="#111">上海地铁示意</text>

  <polyline points="80,260 180,260 280,260 380,260 480,260 580,260 680,260 680,340 680,420"
            fill="none" stroke="#ff8a00" stroke-width="10" stroke-linecap="round" stroke-linejoin="round"/>
  <polyline points="380,260 380,340"
            fill="none" stroke="#ff8a00" stroke-width="10" stroke-linecap="round" stroke-linejoin="round"/>

  <circle cx="80" cy="260" r="9" fill="#fff" stroke="#ff8a00" stroke-width="4"/>
  <text x="60" y="240" font-family="PingFang SC, Noto Sans SC, sans-serif" font-size="16" fill="#222">虹桥</text>

  <circle cx="180" cy="260" r="9" fill="#fff" stroke="#ff8a00" stroke-width="4"/>
  <text x="160" y="240" font-family="PingFang SC, Noto Sans SC, sans-serif" font-size="16" fill="#222">静安寺</text>

  <circle cx="280" cy="260" r="9" fill="#fff" stroke="#ff8a00" stroke-width="4"/>
  <text x="260" y="240" font-family="PingFang SC, Noto Sans SC, sans-serif" font-size="16" fill="#222">徐家汇</text>

  <circle cx="380" cy="260" r="9" fill="#fff" stroke="#ff8a00" stroke-width="4"/>
  <text x="360" y="240" font-family="PingFang SC, Noto Sans SC, sans-serif" font-size="16" fill="#222">人民广场</text>

  <circle cx="480" cy="260" r="9" fill="#fff" stroke="#ff8a00" stroke-width="4"/>
  <text x="460" y="240" font-family="PingFang SC, Noto Sans SC, sans-serif" font-size="16" fill="#222">南京路</text>

  <circle cx="580" cy="260" r="9" fill="#fff" stroke="#ff8a00" stroke-width="4"/>
  <text x="560" y="240" font-family="PingFang SC, Noto Sans SC, sans-serif" font-size="16" fill="#222">外滩</text>

  <circle cx="680" cy="260" r="9" fill="#fff" stroke="#ff8a00" stroke-width="4"/>
  <text x="660" y="240" font-family="PingFang SC, Noto Sans SC, sans-serif" font-size="16" fill="#222">陆家嘴</text>

  <circle cx="680" cy="340" r="9" fill="#fff" stroke="#ff8a00" stroke-width="4"/>
  <text x="650" y="330" font-family="PingFang SC, Noto Sans SC, sans-serif" font-size="16" fill="#222">东方明珠</text>

  <circle cx="680" cy="420" r="9" fill="#fff" stroke="#ff8a00" stroke-width="4"/>
  <text x="650" y="410" font-family="PingFang SC, Noto Sans SC, sans-serif" font-size="16" fill="#222">浦东新区</text>

  <circle cx="380" cy="340" r="9" fill="#fff" stroke="#ff8a00" stroke-width="4"/>
  <text x="360" y="330" font-family="PingFang SC, Noto Sans SC, sans-serif" font-size="16" fill="#222">豫园</text>
</svg>
